<?xml version="1.0" encoding="UTF-8"?>
<svg version="1.1" xmlns="http://www.w3.org/2000/svg" xmlns:xlink="http://www.w3.org/1999/xlink" viewBox="0 0 200 200">
	<path style="fill:#4a555f" d="M167.891,64.531L147.5,44.687l-8.047-7.969H83.516v3.438l-15,5.859L75,60.781l-3.125,3.125L57.109,57.5l-5.859,15h-4.375l-6.094-15.547V200H168.75V65.234L167.891,64.531z M166.172,197.5H43.125V70l1.953,5h7.812l5.547-14.141l13.984,6.094l4.219-4.219l1.328-1.25L71.875,47.5l14.219-5.547v-2.656h52.422l25.938,25.313l1.797,1.719V197.5H166.172z"/>
	<path style="fill:#4a555f" d="M188.906,44.375l-29.219-28.516H74.609l-6.094,13.906l15,5.937v3.516h54.922l25.938,25.313l1.797,1.719v115.781h22.813V44.922L188.906,44.375L188.906,44.375z M186.484,179.609h-17.813V65.234l-21.094-20.625l-8.125-7.891H86.016v-2.734l-14.141-5.547l4.375-10.078h82.5l21.016,20.469l4.922,4.844l1.797,1.797V179.609L186.484,179.609z"/>
	<path style="fill:#4a555f" d="M188.906,44.375l-29.219-28.516h-1.719v30.234h30.937L188.906,44.375L188.906,44.375z M160.469,43.672V20.078l19.219,18.75l4.922,4.844H160.469L160.469,43.672z M167.891,64.531L147.5,44.687l-8.047-7.969h-1.719v30.234h30.938v-1.719L167.891,64.531z M140.156,64.531V40.938l24.219,23.594C164.375,64.531,140.156,64.531,140.156,64.531z M62.188,89.219h86.797v2.5H62.188V89.219z M62.188,109.375h86.797v2.5H62.188V109.375z M62.188,129.531h36.016v2.5H62.188V129.531z M62.188,149.453h36.016v2.5H62.188V149.453z M62.188,169.297h36.016v2.5H62.188V169.297z"/>
	<path style="fill:#ffd552" d="M125,61.719v13.203H62.188V61.719h1.641l8.281,3.672l3.672-3.672H125z"/>
	<path style="fill:#4a555f" d="M52.891,74.922h-7.813l-5.625-14.219l-14.063,6.094l-0.703-0.859l-5.625-5.625l6.094-13.984l-14.141-5.547v-7.813l14.141-5.547l-6.094-13.906l0.859-0.938l4.609-4.609l13.984,6.094L44.141,0h7.813l5.625,14.141l13.984-6.094l6.406,6.406l-6.094,13.984l14.219,5.625v7.813l-14.219,5.547l6.094,13.984l-0.937,0.937L72.5,66.953l-13.984-6.094C58.516,60.859,52.891,74.922,52.891,74.922z M46.797,72.5h4.375l5.859-15l14.844,6.406L75,60.781l-6.406-14.766l15-5.859v-4.453l-15-5.938L75,15.078l-3.984-3.984L56.25,17.5l-5.938-15h-4.453L40,17.5l-14.766-6.406l-3.125,3.125l6.406,14.687l-15,5.859v4.453l15,5.859l-6.406,14.766l4.063,3.984l14.766-6.406C40.938,57.422,46.797,72.5,46.797,72.5z M48.438,50.703c-4.531,0-8.828-2.422-11.172-6.406c-1.172-1.953-1.797-4.219-1.797-6.562c0-7.188,5.781-12.969,12.969-12.969c2.266,0,4.453,0.625,6.406,1.719c4.063,2.266,6.563,6.641,6.563,11.25C61.484,44.844,55.625,50.703,48.438,50.703z M48.438,27.188c-5.781,0-10.469,4.688-10.469,10.469c0,1.875,0.469,3.75,1.484,5.313c1.875,3.203,5.313,5.156,9.063,5.156c5.781,0,10.469-4.688,10.469-10.469c0-3.75-2.031-7.266-5.313-9.141C52.109,27.734,50.312,27.188,48.438,27.188z"/>
	<path style="fill:#f68f6f" d="M48.75,69.609L42.5,53.672l-15.703,6.875l-1.25-1.25l6.797-15.703l-15.938-6.25v-0.469l15.938-6.25l-6.797-15.781l0.313-0.313l15.703,6.797l6.25-15.938h0.469l6.25,15.938l15.781-6.875l1.25,1.25l-6.875,15.703l15.938,6.25v0.469l-15.938,6.25l6.875,15.781l-0.313,0.313l-15.781-6.875l-6.25,15.938H48.75V69.609z M48.438,21.875c-8.75,0-15.859,7.109-15.859,15.859c0,2.891,0.781,5.625,2.266,8.047c2.813,4.766,8.047,7.734,13.594,7.734c8.75,0,15.859-7.109,15.859-15.859c0-5.703-3.047-10.938-8.047-13.75C53.984,22.578,51.25,21.875,48.438,21.875z"/>
	<path style="fill:#4a555f" d="M150.234,171.797h-43.594v-42.188h43.594V171.797z M109.141,169.297h38.672v-37.266h-38.672V169.297z"/>
	<path style="fill:#71cde1" d="M112.031,134.922h32.891v31.484h-32.891V134.922z"/>
	<path style="fill:#4a555f" d="M108.721,129.919l41.112,39.751l-1.738,1.797l-41.113-39.75L108.721,129.919z"/>
	<path style="fill:#4a555f" d="M148.105,129.913l1.738,1.797l-41.101,39.762l-1.738-1.797L148.105,129.913z"/>
</svg>
